name Walk8.mot
datacolumns 19
datarows 10
range 2.23000000 2.27500000
endheader

                time	   L_ground_force_vx	   L_ground_force_vy	   L_ground_force_vz	   L_ground_force_px	   L_ground_force_py	   L_ground_force_pz	   R_ground_force_vx	   R_ground_force_vy	   R_ground_force_vz	   R_ground_force_px	   R_ground_force_py	   R_ground_force_pz	   L_ground_torque_x	   L_ground_torque_y	   L_ground_torque_z	   R_ground_torque_x	   R_ground_torque_y	   R_ground_torque_z	
          2.23000000	         -4.01216454	         -9.83607451	         -0.19919431	          0.06585322	          0.00000000	          0.02451860	          0.00000000	          0.00000000	          0.00000000	         -0.00000000	          0.00000000	          0.00000000	          0.00000000	          0.00014112	          0.00000000	          0.00000000	         -0.00000000	          0.00000000	
          2.23500000	         -4.52540994	        -10.80977886	          0.05697160	          0.03522036	          0.00000000	          0.01320296	          0.00000000	          0.00000000	          0.00000000	         -0.00000000	          0.00000000	          0.00000000	          0.00000000	          0.00422743	          0.00000000	          0.00000000	         -0.00000000	          0.00000000	
          2.24000000	         -4.49663907	        -10.57927379	          0.21674007	          0.01279060	          0.00000000	          0.00490226	          0.00000000	          0.00000000	          0.00000000	         -0.00000000	          0.00000000	          0.00000000	          0.00000000	          0.00651357	          0.00000000	          0.00000000	         -0.00000000	          0.00000000	
          2.24500000	         -4.12255908	         -9.59476272	          0.30205498	         -0.00260476	          0.00000000	         -0.00080852	          0.00000000	          0.00000000	          0.00000000	         -0.00000000	          0.00000000	          0.00000000	          0.00000000	          0.00746448	          0.00000000	          0.00000000	         -0.00000000	          0.00000000	
          2.25000000	         -3.55662426	         -8.20458512	          0.33287688	         -0.01227149	          0.00000000	         -0.00440680	          0.00000000	          0.00000000	          0.00000000	         -0.00000000	          0.00000000	          0.00000000	          0.00000000	          0.00748393	          0.00000000	          0.00000000	         -0.00000000	          0.00000000	
          2.25500000	         -2.91241525	         -6.66420768	          0.32631583	         -0.01750006	          0.00000000	         -0.00636577	          0.00000000	          0.00000000	          0.00000000	         -0.00000000	          0.00000000	          0.00000000	          0.00000000	          0.00690452	          0.00000000	          0.00000000	         -0.00000000	          0.00000000	
          2.26000000	         -2.26895965	         -5.14933522	          0.29630072	         -0.01946899	          0.00000000	         -0.00711857	          0.00000000	          0.00000000	          0.00000000	         -0.00000000	          0.00000000	          0.00000000	          0.00000000	          0.00598688	          0.00000000	          0.00000000	         -0.00000000	          0.00000000	
          2.26500000	         -1.67687677	         -3.77062670	          0.25361881	         -0.01919187	          0.00000000	         -0.00703834	          0.00000000	          0.00000000	          0.00000000	         -0.00000000	          0.00000000	          0.00000000	          0.00000000	          0.00492493	          0.00000000	          0.00000000	         -0.00000000	          0.00000000	
          2.27000000	         -1.16456481	         -2.58827665	          0.20618955	         -0.01749631	          0.00000000	         -0.00643023	          0.00000000	          0.00000000	          0.00000000	         -0.00000000	          0.00000000	          0.00000000	          0.00000000	          0.00385442	          0.00000000	          0.00000000	          0.00000000	          0.00000000	
          2.27500000	         -0.74392608	         -1.62535709	          0.15946698	         -0.01502524	          0.00000000	         -0.00553172	          0.00000000	         -0.00000000	          0.00000000	         -0.00000000	          0.00000000	          0.00000000	          0.00000000	          0.00286309	          0.00000000	          0.00000000	          0.00000000	          0.00000000	
